<mxfile host="Electron" modified="2024-06-25T12:02:43.623Z" agent="Mozilla/5.0 (Windows NT 10.0; Win64; x64) AppleWebKit/537.36 (KHTML, like Gecko) draw.io/24.2.5 Chrome/120.0.6099.109 Electron/28.1.0 Safari/537.36" etag="bo9Ophs8U6rva6Jc92Yc" version="24.2.5" type="device">
  <diagram name="PÃ¡gina-1" id="ShYP4Z7kNIGEGotcjoKQ">
    <mxGraphModel dx="1434" dy="836" grid="1" gridSize="10" guides="1" tooltips="1" connect="1" arrows="1" fold="1" page="1" pageScale="1" pageWidth="827" pageHeight="1169" math="0" shadow="0">
      <root>
        <mxCell id="0" />
        <mxCell id="1" parent="0" />
        <mxCell id="Ab7CJXG6-AlUYN084gjI-1" value="" style="group;rotation=-135;" vertex="1" connectable="0" parent="1">
          <mxGeometry x="284" y="219.99577136594007" width="110" height="100.00422863405993" as="geometry" />
        </mxCell>
        <mxCell id="Ab7CJXG6-AlUYN084gjI-2" value="" style="rounded=0;whiteSpace=wrap;html=1;" vertex="1" parent="Ab7CJXG6-AlUYN084gjI-1">
          <mxGeometry x="-7" y="-5" width="110" height="110" as="geometry" />
        </mxCell>
        <mxCell id="Ab7CJXG6-AlUYN084gjI-3" value="" style="ellipse;whiteSpace=wrap;html=1;aspect=fixed;rotation=-135;" vertex="1" parent="Ab7CJXG6-AlUYN084gjI-1">
          <mxGeometry x="9" y="10" width="80" height="80" as="geometry" />
        </mxCell>
        <mxCell id="Ab7CJXG6-AlUYN084gjI-4" value="" style="group;rotation=-165;" vertex="1" connectable="0" parent="Ab7CJXG6-AlUYN084gjI-1">
          <mxGeometry x="25" y="79" width="24" height="18" as="geometry" />
        </mxCell>
        <mxCell id="Ab7CJXG6-AlUYN084gjI-5" value="" style="triangle;whiteSpace=wrap;html=1;rotation=-165;" vertex="1" parent="Ab7CJXG6-AlUYN084gjI-4">
          <mxGeometry x="6" y="1" width="18" height="18" as="geometry" />
        </mxCell>
        <mxCell id="Ab7CJXG6-AlUYN084gjI-6" value="" style="ellipse;whiteSpace=wrap;html=1;aspect=fixed;rotation=-165;" vertex="1" parent="Ab7CJXG6-AlUYN084gjI-4">
          <mxGeometry x="1" y="5" width="6" height="6" as="geometry" />
        </mxCell>
        <mxCell id="Ab7CJXG6-AlUYN084gjI-7" value="" style="triangle;whiteSpace=wrap;html=1;rotation=-45;" vertex="1" parent="Ab7CJXG6-AlUYN084gjI-1">
          <mxGeometry x="8" y="17" width="18" height="18" as="geometry" />
        </mxCell>
        <mxCell id="Ab7CJXG6-AlUYN084gjI-8" value="" style="ellipse;whiteSpace=wrap;html=1;aspect=fixed;rotation=-186;" vertex="1" parent="Ab7CJXG6-AlUYN084gjI-1">
          <mxGeometry x="23" y="14" width="6" height="6" as="geometry" />
        </mxCell>
        <mxCell id="Ab7CJXG6-AlUYN084gjI-9" value="" style="group;rotation=-285;" vertex="1" connectable="0" parent="Ab7CJXG6-AlUYN084gjI-1">
          <mxGeometry x="74" y="31" width="24" height="18" as="geometry" />
        </mxCell>
        <mxCell id="Ab7CJXG6-AlUYN084gjI-10" value="" style="triangle;whiteSpace=wrap;html=1;rotation=-285;" vertex="1" parent="Ab7CJXG6-AlUYN084gjI-9">
          <mxGeometry x="3" y="-3" width="18" height="18" as="geometry" />
        </mxCell>
        <mxCell id="Ab7CJXG6-AlUYN084gjI-11" value="" style="ellipse;whiteSpace=wrap;html=1;aspect=fixed;rotation=-285;" vertex="1" parent="Ab7CJXG6-AlUYN084gjI-9">
          <mxGeometry x="12" y="15" width="6" height="6" as="geometry" />
        </mxCell>
        <mxCell id="Ab7CJXG6-AlUYN084gjI-12" value="VCO1 (P)" style="text;html=1;align=center;verticalAlign=middle;whiteSpace=wrap;rounded=0;" vertex="1" parent="Ab7CJXG6-AlUYN084gjI-1">
          <mxGeometry x="19" y="-29.995771365940072" width="60" height="30" as="geometry" />
        </mxCell>
        <mxCell id="Ab7CJXG6-AlUYN084gjI-13" value="" style="endArrow=classic;html=1;rounded=0;" edge="1" parent="1">
          <mxGeometry width="50" height="50" relative="1" as="geometry">
            <mxPoint x="388" y="269.65" as="sourcePoint" />
            <mxPoint x="458" y="269.65" as="targetPoint" />
          </mxGeometry>
        </mxCell>
        <mxCell id="Ab7CJXG6-AlUYN084gjI-14" value="Counter" style="rounded=0;whiteSpace=wrap;html=1;" vertex="1" parent="1">
          <mxGeometry x="460" y="245" width="90" height="50" as="geometry" />
        </mxCell>
        <mxCell id="Ab7CJXG6-AlUYN084gjI-15" value="" style="endArrow=classic;html=1;rounded=0;exitX=1;exitY=0.5;exitDx=0;exitDy=0;" edge="1" parent="1">
          <mxGeometry width="50" height="50" relative="1" as="geometry">
            <mxPoint x="549.9999999999998" y="269.6600000000001" as="sourcePoint" />
            <mxPoint x="590" y="269.65999999999997" as="targetPoint" />
          </mxGeometry>
        </mxCell>
        <mxCell id="Ab7CJXG6-AlUYN084gjI-16" value="Sample" style="rounded=0;whiteSpace=wrap;html=1;" vertex="1" parent="1">
          <mxGeometry x="590" y="245" width="90" height="50" as="geometry" />
        </mxCell>
        <mxCell id="Ab7CJXG6-AlUYN084gjI-17" value="Noise Shaper" style="rounded=0;whiteSpace=wrap;html=1;" vertex="1" parent="1">
          <mxGeometry x="855" y="310" width="90" height="50" as="geometry" />
        </mxCell>
        <mxCell id="Ab7CJXG6-AlUYN084gjI-18" value="-" style="strokeWidth=2;html=1;shape=mxgraph.flowchart.start_2;whiteSpace=wrap;" vertex="1" parent="1">
          <mxGeometry x="697" y="320" width="30" height="30" as="geometry" />
        </mxCell>
        <mxCell id="Ab7CJXG6-AlUYN084gjI-19" value="" style="rounded=0;whiteSpace=wrap;html=1;" vertex="1" parent="1">
          <mxGeometry x="277" y="354.9957713659401" width="110" height="110" as="geometry" />
        </mxCell>
        <mxCell id="Ab7CJXG6-AlUYN084gjI-20" value="" style="ellipse;whiteSpace=wrap;html=1;aspect=fixed;rotation=-135;" vertex="1" parent="1">
          <mxGeometry x="293" y="369.9957713659401" width="80" height="80" as="geometry" />
        </mxCell>
        <mxCell id="Ab7CJXG6-AlUYN084gjI-21" value="" style="group;rotation=-165;" vertex="1" connectable="0" parent="1">
          <mxGeometry x="309" y="438.9957713659401" width="24" height="18" as="geometry" />
        </mxCell>
        <mxCell id="Ab7CJXG6-AlUYN084gjI-22" value="" style="triangle;whiteSpace=wrap;html=1;rotation=-165;" vertex="1" parent="Ab7CJXG6-AlUYN084gjI-21">
          <mxGeometry x="6" y="1" width="18" height="18" as="geometry" />
        </mxCell>
        <mxCell id="Ab7CJXG6-AlUYN084gjI-23" value="" style="ellipse;whiteSpace=wrap;html=1;aspect=fixed;rotation=-165;" vertex="1" parent="Ab7CJXG6-AlUYN084gjI-21">
          <mxGeometry x="1" y="5" width="6" height="6" as="geometry" />
        </mxCell>
        <mxCell id="Ab7CJXG6-AlUYN084gjI-24" value="" style="triangle;whiteSpace=wrap;html=1;rotation=-45;" vertex="1" parent="1">
          <mxGeometry x="292" y="376.9957713659401" width="18" height="18" as="geometry" />
        </mxCell>
        <mxCell id="Ab7CJXG6-AlUYN084gjI-25" value="" style="ellipse;whiteSpace=wrap;html=1;aspect=fixed;rotation=-186;" vertex="1" parent="1">
          <mxGeometry x="307" y="373.9957713659401" width="6" height="6" as="geometry" />
        </mxCell>
        <mxCell id="Ab7CJXG6-AlUYN084gjI-26" value="" style="group;rotation=-285;" vertex="1" connectable="0" parent="1">
          <mxGeometry x="358" y="390.9957713659401" width="24" height="18" as="geometry" />
        </mxCell>
        <mxCell id="Ab7CJXG6-AlUYN084gjI-27" value="" style="triangle;whiteSpace=wrap;html=1;rotation=-285;" vertex="1" parent="Ab7CJXG6-AlUYN084gjI-26">
          <mxGeometry x="3" y="-3" width="18" height="18" as="geometry" />
        </mxCell>
        <mxCell id="Ab7CJXG6-AlUYN084gjI-28" value="" style="ellipse;whiteSpace=wrap;html=1;aspect=fixed;rotation=-285;" vertex="1" parent="Ab7CJXG6-AlUYN084gjI-26">
          <mxGeometry x="12" y="15" width="6" height="6" as="geometry" />
        </mxCell>
        <mxCell id="Ab7CJXG6-AlUYN084gjI-29" value="VCO1 (N)" style="text;html=1;align=center;verticalAlign=middle;whiteSpace=wrap;rounded=0;" vertex="1" parent="1">
          <mxGeometry x="303" y="330" width="60" height="30" as="geometry" />
        </mxCell>
        <mxCell id="Ab7CJXG6-AlUYN084gjI-30" value="" style="endArrow=classic;html=1;rounded=0;" edge="1" parent="1">
          <mxGeometry width="50" height="50" relative="1" as="geometry">
            <mxPoint x="388" y="409.65" as="sourcePoint" />
            <mxPoint x="458" y="409.65" as="targetPoint" />
          </mxGeometry>
        </mxCell>
        <mxCell id="Ab7CJXG6-AlUYN084gjI-31" value="Counter" style="rounded=0;whiteSpace=wrap;html=1;" vertex="1" parent="1">
          <mxGeometry x="460" y="385" width="90" height="50" as="geometry" />
        </mxCell>
        <mxCell id="Ab7CJXG6-AlUYN084gjI-32" value="" style="endArrow=classic;html=1;rounded=0;exitX=1;exitY=0.5;exitDx=0;exitDy=0;" edge="1" parent="1">
          <mxGeometry width="50" height="50" relative="1" as="geometry">
            <mxPoint x="549.9999999999998" y="409.6600000000001" as="sourcePoint" />
            <mxPoint x="590" y="409.65999999999997" as="targetPoint" />
          </mxGeometry>
        </mxCell>
        <mxCell id="Ab7CJXG6-AlUYN084gjI-33" value="Sample" style="rounded=0;whiteSpace=wrap;html=1;" vertex="1" parent="1">
          <mxGeometry x="590" y="385" width="90" height="50" as="geometry" />
        </mxCell>
        <mxCell id="Ab7CJXG6-AlUYN084gjI-34" value="" style="endArrow=classic;html=1;rounded=0;exitX=1;exitY=0.5;exitDx=0;exitDy=0;" edge="1" parent="1">
          <mxGeometry width="50" height="50" relative="1" as="geometry">
            <mxPoint x="726.9999999999998" y="334.6600000000001" as="sourcePoint" />
            <mxPoint x="767" y="334.65999999999997" as="targetPoint" />
          </mxGeometry>
        </mxCell>
        <mxCell id="Ab7CJXG6-AlUYN084gjI-35" value="" style="endArrow=classic;html=1;rounded=0;" edge="1" parent="1">
          <mxGeometry width="50" height="50" relative="1" as="geometry">
            <mxPoint x="80" y="319" as="sourcePoint" />
            <mxPoint x="160" y="319" as="targetPoint" />
          </mxGeometry>
        </mxCell>
        <mxCell id="Ab7CJXG6-AlUYN084gjI-36" value="" style="endArrow=classic;html=1;rounded=0;" edge="1" parent="1">
          <mxGeometry width="50" height="50" relative="1" as="geometry">
            <mxPoint x="80" y="358" as="sourcePoint" />
            <mxPoint x="160" y="358" as="targetPoint" />
          </mxGeometry>
        </mxCell>
        <mxCell id="Ab7CJXG6-AlUYN084gjI-37" value="" style="triangle;whiteSpace=wrap;html=1;" vertex="1" parent="1">
          <mxGeometry x="160" y="299" width="70" height="80" as="geometry" />
        </mxCell>
        <mxCell id="Ab7CJXG6-AlUYN084gjI-38" value="gm" style="text;html=1;align=center;verticalAlign=middle;whiteSpace=wrap;rounded=0;" vertex="1" parent="1">
          <mxGeometry x="154" y="323" width="60" height="30" as="geometry" />
        </mxCell>
        <mxCell id="Ab7CJXG6-AlUYN084gjI-39" value="" style="endArrow=classic;html=1;rounded=0;exitX=0.5;exitY=0;exitDx=0;exitDy=0;entryX=0;entryY=0.5;entryDx=0;entryDy=0;" edge="1" parent="1" source="Ab7CJXG6-AlUYN084gjI-37" target="Ab7CJXG6-AlUYN084gjI-2">
          <mxGeometry width="50" height="50" relative="1" as="geometry">
            <mxPoint x="420" y="490" as="sourcePoint" />
            <mxPoint x="470" y="440" as="targetPoint" />
            <Array as="points">
              <mxPoint x="230" y="319" />
              <mxPoint x="230" y="270" />
            </Array>
          </mxGeometry>
        </mxCell>
        <mxCell id="Ab7CJXG6-AlUYN084gjI-40" value="" style="endArrow=classic;html=1;rounded=0;exitX=0.5;exitY=1;exitDx=0;exitDy=0;entryX=0;entryY=0.5;entryDx=0;entryDy=0;" edge="1" parent="1" source="Ab7CJXG6-AlUYN084gjI-37" target="Ab7CJXG6-AlUYN084gjI-19">
          <mxGeometry width="50" height="50" relative="1" as="geometry">
            <mxPoint x="420" y="490" as="sourcePoint" />
            <mxPoint x="470" y="440" as="targetPoint" />
            <Array as="points">
              <mxPoint x="230" y="360" />
              <mxPoint x="230" y="410" />
            </Array>
          </mxGeometry>
        </mxCell>
        <mxCell id="Ab7CJXG6-AlUYN084gjI-41" value="inP" style="text;html=1;align=center;verticalAlign=middle;whiteSpace=wrap;rounded=0;" vertex="1" parent="1">
          <mxGeometry x="60" y="293" width="60" height="30" as="geometry" />
        </mxCell>
        <mxCell id="Ab7CJXG6-AlUYN084gjI-42" value="inN" style="text;html=1;align=center;verticalAlign=middle;whiteSpace=wrap;rounded=0;" vertex="1" parent="1">
          <mxGeometry x="60" y="355" width="60" height="30" as="geometry" />
        </mxCell>
        <mxCell id="Ab7CJXG6-AlUYN084gjI-43" value="" style="triangle;whiteSpace=wrap;html=1;" vertex="1" parent="1">
          <mxGeometry x="767" y="311.5" width="47" height="47" as="geometry" />
        </mxCell>
        <mxCell id="Ab7CJXG6-AlUYN084gjI-44" value="" style="endArrow=classic;html=1;rounded=0;exitX=1;exitY=0.5;exitDx=0;exitDy=0;" edge="1" parent="1">
          <mxGeometry width="50" height="50" relative="1" as="geometry">
            <mxPoint x="813.9999999999998" y="334.7600000000001" as="sourcePoint" />
            <mxPoint x="854" y="334.76" as="targetPoint" />
          </mxGeometry>
        </mxCell>
        <mxCell id="Ab7CJXG6-AlUYN084gjI-45" value="4*G" style="text;html=1;align=center;verticalAlign=middle;whiteSpace=wrap;rounded=0;" vertex="1" parent="1">
          <mxGeometry x="767" y="323.5" width="34" height="23" as="geometry" />
        </mxCell>
        <mxCell id="Ab7CJXG6-AlUYN084gjI-46" value="" style="endArrow=classic;html=1;rounded=0;exitX=1;exitY=0.5;exitDx=0;exitDy=0;entryX=0.5;entryY=0;entryDx=0;entryDy=0;entryPerimeter=0;" edge="1" parent="1" target="Ab7CJXG6-AlUYN084gjI-18">
          <mxGeometry width="50" height="50" relative="1" as="geometry">
            <mxPoint x="680" y="267" as="sourcePoint" />
            <mxPoint x="747" y="217" as="targetPoint" />
            <Array as="points">
              <mxPoint x="712" y="267" />
            </Array>
          </mxGeometry>
        </mxCell>
        <mxCell id="Ab7CJXG6-AlUYN084gjI-47" value="" style="endArrow=classic;html=1;rounded=0;exitX=1;exitY=0.5;exitDx=0;exitDy=0;entryX=0.5;entryY=1;entryDx=0;entryDy=0;entryPerimeter=0;" edge="1" parent="1" target="Ab7CJXG6-AlUYN084gjI-18">
          <mxGeometry width="50" height="50" relative="1" as="geometry">
            <mxPoint x="680" y="409" as="sourcePoint" />
            <mxPoint x="712" y="462" as="targetPoint" />
            <Array as="points">
              <mxPoint x="712" y="409" />
            </Array>
          </mxGeometry>
        </mxCell>
        <mxCell id="Ab7CJXG6-AlUYN084gjI-48" value="" style="endArrow=classic;html=1;rounded=0;" edge="1" parent="1">
          <mxGeometry width="50" height="50" relative="1" as="geometry">
            <mxPoint x="945" y="334.58" as="sourcePoint" />
            <mxPoint x="1000" y="334.58" as="targetPoint" />
          </mxGeometry>
        </mxCell>
      </root>
    </mxGraphModel>
  </diagram>
</mxfile>
